<?xml version="1.0" encoding="utf-8"?>
<!-- Generator: Adobe Illustrator 26.0.3, SVG Export Plug-In . SVG Version: 6.00 Build 0)  -->
<svg version="1.0" id="katman_1" xmlns="http://www.w3.org/2000/svg" xmlns:xlink="http://www.w3.org/1999/xlink" x="0px" y="0px"
	 viewBox="0 0 600 450" style="enable-background:new 0 0 600 450;" xml:space="preserve">
<style type="text/css">
	.st0{fill-rule:evenodd;clip-rule:evenodd;fill:#FFFFFF;}
	.st1{fill-rule:evenodd;clip-rule:evenodd;fill:#1B3762;}
	.st2{fill-rule:evenodd;clip-rule:evenodd;fill:#74B842;}
</style>
<g id="Logo">
	<g id="Group-4">
		<path id="Rectangle" class="st0" d="M147,76.7h306.2v297.4H147V76.7z"/>
		<path id="Fill-1" class="st1" d="M147,185.2h306.2V76.7H147V185.2z"/>
		<path id="Fill-3" class="st2" d="M147,374.1h306.2V265.6H147V374.1z"/>
	</g>
	<path id="Fill-5" class="st1" d="M168.6,232.9h3.9c4.8,0,7.2,1.7,7.2,4.7c0,3-2.4,4.7-7.2,4.7h-3.9V232.9z M147,256.8h30.6
		c15.9,0,23.9-5.7,23.9-16.6c0-7.7-4.2-12.3-12.9-13.9c6.3-1.3,9.9-5.7,9.9-12.1c0-9.7-7.4-16-20.9-16H147V256.8z M168.6,212.1h3
		c3.8,0,5.7,1.5,5.7,4.1s-2,4.1-5.7,4.1h-3V212.1L168.6,212.1z"/>
	<path id="Fill-6" class="st1" d="M205.7,198.1h24.6v31.2c0,6,1.1,9.5,6.8,9.5c5.6,0,6.9-3.5,6.9-9.5v-31.2h24.6v31
		c0,6.9-0.8,12.3-4,16.6c-5.2,6.9-15.1,11-27.5,11c-12.3,0-22.3-4.2-27.5-11c-3.3-4.3-3.9-9.7-3.9-16.6V198.1"/>
	<path id="Fill-7" class="st1" d="M272.8,198.1h23.7l20.1,30.7l0-30.7h23.3v58.6H316l-19.9-30.4l0,30.4h-23.3V198.1"/>
	<path id="Fill-8" class="st1" d="M364.5,215.6h-23.4v-17.5h61.7l-28,40.6h24.7v18h-63.8L364.5,215.6"/>
	<path id="Fill-9" class="st1" d="M402.8,198.1h23.4v39.6h22.7v19h-46.1V198.1"/>
</g>
</svg>
